<?xml version="1.0" encoding="iso-8859-1"?>
<!-- Generator: Adobe Illustrator 19.0.0, SVG Export Plug-In . SVG Version: 6.00 Build 0)  -->
<svg version="1.1" id="Capa_1" xmlns="http://www.w3.org/2000/svg" xmlns:xlink="http://www.w3.org/1999/xlink" x="0px" y="0px"
	 viewBox="0 0 512 512" style="enable-background:new 0 0 512 512;" xml:space="preserve">
<path style="fill:#D1D1D1;" d="M415.481,458.878H28.597C12.803,458.878,0,446.075,0,430.281V132.214
	c0-15.794,12.803-28.597,28.597-28.597h415.481v326.664C444.077,446.075,431.274,458.878,415.481,458.878z"/>
<rect x="31.347" y="137.592" style="fill:#F4F4F4;" width="381.388" height="289.949"/>
<path style="fill:#53BCE9;" d="M270.989,231.131l-1.769-4.244c-2.628-6.308-8.792-10.417-15.624-10.417h-63.113
	c-6.834,0-12.996,4.109-15.624,10.417l-1.769,4.244c-2.628,6.308-8.792,10.417-15.624,10.417l0,0
	c-9.349,0-16.927,7.579-16.927,16.927v76.904c0,9.349,7.579,16.927,16.927,16.927h129.149c9.349,0,16.927-7.579,16.927-16.927
	v-76.904c0-9.349-7.579-16.927-16.927-16.927l0,0C279.781,241.547,273.617,237.439,270.989,231.131z"/>
<circle style="fill:#435054;" cx="222.041" cy="289.614" r="32.569"/>
<circle style="fill:#47C97F;" cx="422.661" cy="142.461" r="89.339"/>
<g>
	<path style="fill:#FFFFFF;" d="M422.665,197.311c-4.328,0-7.837-3.509-7.837-7.837V95.438c0-4.328,3.509-7.837,7.837-7.837
		c4.328,0,7.837,3.509,7.837,7.837v94.037C430.502,193.802,426.993,197.311,422.665,197.311z"/>
	<path style="fill:#FFFFFF;" d="M469.684,150.292h-94.037c-4.328,0-7.837-3.509-7.837-7.837c0-4.328,3.509-7.837,7.837-7.837h94.037
		c4.328,0,7.837,3.509,7.837,7.837C477.52,146.784,474.012,150.292,469.684,150.292z"/>
</g>
<g>
</g>
<g>
</g>
<g>
</g>
<g>
</g>
<g>
</g>
<g>
</g>
<g>
</g>
<g>
</g>
<g>
</g>
<g>
</g>
<g>
</g>
<g>
</g>
<g>
</g>
<g>
</g>
<g>
</g>
</svg>
